<svg width="24" height="24" viewBox="0 0 24 24" fill="none" xmlns="http://www.w3.org/2000/svg">
<g clip-path="url(#clip0_96_1316)">
<path d="M0.0389528 14.8061C0.0641705 14.7451 0.101199 14.6897 0.147932 14.6431L6.1477 8.64333C6.3463 8.45148 6.66283 8.45701 6.85469 8.65561C7.04185 8.84939 7.04185 9.15655 6.85469 9.35032L1.70787 14.4971H11.5005C17.8486 14.4899 22.9929 9.34559 23.0001 2.99755C23.0001 2.72142 23.2239 2.49756 23.5001 2.49756C23.7762 2.49756 24 2.72142 24 2.99755C23.9923 9.89766 18.4006 15.4893 11.5005 15.4971H1.70787L6.85365 20.6429C7.05226 20.8347 7.05774 21.1513 6.86589 21.3499C6.67404 21.5485 6.3575 21.5539 6.1589 21.3621C6.15473 21.3581 6.15065 21.354 6.14667 21.3499L0.146902 15.3501C0.0036577 15.2072 -0.0393724 14.9921 0.0379214 14.8051L0.0389528 14.8061Z" fill="#2196F3"/>
<path d="M6.50058 21.4968C6.77671 21.4973 7.00095 21.2738 7.00146 20.9977C7.0017 20.8646 6.94883 20.7368 6.85456 20.6428L1.20775 14.997L6.85456 9.35127C7.04642 9.15267 7.04088 8.83613 6.84228 8.64428C6.64851 8.45712 6.34135 8.45712 6.14757 8.64428L0.147808 14.644C-0.0473718 14.8393 -0.0473718 15.1558 0.147808 15.351L6.14757 21.3508C6.24127 21.4443 6.36821 21.4968 6.50058 21.4968Z" fill="#343434"/>
<path d="M0.500934 15.4971H11.5005C18.4006 15.4893 23.9923 9.89766 24 2.99755C24 2.72142 23.7761 2.49756 23.5 2.49756C23.2239 2.49756 23 2.72142 23 2.99755C22.9928 9.34559 17.8485 14.49 11.5005 14.4971H0.500887C0.224757 14.4971 0.000892641 14.721 0.000892641 14.9971C0.000939514 15.2732 0.224804 15.4971 0.500934 15.4971Z" fill="#343434"/>
</g>
<defs>
<clipPath id="clip0_96_1316">
<rect width="24" height="24" fill="white" transform="matrix(-1 0 0 1 24 0)"/>
</clipPath>
</defs>
</svg>
