<svg width="24" height="24" viewBox="0 0 24 24" fill="none" xmlns="http://www.w3.org/2000/svg">
<g clip-path="url(#clip0_96_1320)">
<path d="M23.961 14.8061C23.9358 14.7451 23.8988 14.6897 23.8521 14.6431L17.8523 8.64333C17.6537 8.45148 17.3372 8.45701 17.1453 8.65562C16.9581 8.84939 16.9581 9.15655 17.1453 9.35032L22.2921 14.4971H12.4995C6.15145 14.4899 1.00712 9.34559 0.999945 2.99755C0.999945 2.72142 0.776079 2.49756 0.499949 2.49756C0.223819 2.49756 0 2.72142 0 2.99755C0.00773407 9.89766 5.59942 15.4894 12.4995 15.4971H22.2921L17.1463 20.6429C16.9477 20.8347 16.9423 21.1513 17.1341 21.3499C17.326 21.5485 17.6425 21.5539 17.8411 21.3621C17.8453 21.3581 17.8493 21.354 17.8533 21.3499L23.8531 15.3501C23.9963 15.2072 24.0394 14.9921 23.9621 14.8051L23.961 14.8061Z" fill="#2196F3"/>
<path d="M17.4994 21.4968C17.2233 21.4973 16.9991 21.2738 16.9985 20.9977C16.9983 20.8646 17.0512 20.7368 17.1454 20.6428L22.7922 14.997L17.1454 9.35127C16.9536 9.15267 16.9591 8.83613 17.1577 8.64428C17.3515 8.45712 17.6587 8.45712 17.8524 8.64428L23.8522 14.644C24.0474 14.8393 24.0474 15.1558 23.8522 15.351L17.8524 21.3508C17.7587 21.4443 17.6318 21.4968 17.4994 21.4968Z" fill="#343434"/>
<path d="M23.4991 15.4971H12.4995C5.59942 15.4893 0.00773407 9.89766 0 2.99755C0 2.72142 0.223866 2.49756 0.499996 2.49756C0.776126 2.49756 0.999992 2.72142 0.999992 2.99755C1.00716 9.34559 6.15149 14.49 12.4995 14.4971H23.4991C23.7752 14.4971 23.9991 14.721 23.9991 14.9971C23.9991 15.2732 23.7752 15.4971 23.4991 15.4971Z" fill="#343434"/>
</g>
<defs>
<clipPath id="clip0_96_1320">
<rect width="24" height="24" fill="white"/>
</clipPath>
</defs>
</svg>
